<svg width="51" height="72" viewBox="0 0 51 72" fill="none" xmlns="http://www.w3.org/2000/svg">
<rect width="4.54567" height="1.2" transform="matrix(0.942413 -0.334452 0.346602 0.938012 28.3398 7.14691)" fill="#971B2F"/>
<rect width="7.61945" height="1.21738" transform="matrix(0.422217 0.906495 -0.912827 0.408346 44.2319 12.3307)" fill="#971B2F"/>
<ellipse cx="38.6012" cy="17.7178" rx="2.93174" ry="2.87316" fill="#004F9F"/>
<ellipse cx="47.8851" cy="21.5487" rx="2.93174" ry="2.87316" fill="#004F9F"/>
<ellipse cx="42.7545" cy="10.5349" rx="2.93174" ry="2.87316" fill="#971B2F"/>
<ellipse cx="23.8202" cy="2.87316" rx="2.93174" ry="2.87316" fill="#971B2F"/>
<ellipse cx="15.5746" cy="4.42942" rx="1.95449" ry="1.91544" fill="#971B2F"/>
<ellipse cx="27.8515" cy="8.26035" rx="1.95449" ry="1.91544" fill="#971B2F"/>
<ellipse cx="33.715" cy="12.9292" rx="1.95449" ry="1.91544" fill="#004F9F"/>
<ellipse cx="34.6308" cy="4.84844" rx="3.35928" ry="3.29216" fill="#971B2F"/>
<rect width="4.55092" height="1.19857" transform="matrix(0.97178 -0.235891 0.245035 0.969514 16.8577 3.70728)" fill="#971B2F"/>
<rect width="6.57847" height="1.20472" transform="matrix(0.837009 0.547189 -0.56269 0.826668 35.981 5.62659)" fill="#971B2F"/>
<rect width="3.72832" height="1.20695" transform="matrix(0.781394 0.624038 -0.639361 0.768907 34.4866 13.5278)" fill="#004F9F"/>
<rect width="6.05743" height="1.20061" transform="matrix(0.929702 0.368312 -0.381315 0.924445 40.7695 18.077)" fill="#004F9F"/>
<rect width="4.48994" height="1.21499" transform="matrix(0.528091 0.849188 -0.858524 0.512774 25.2302 3.83087)" fill="#971B2F"/>
<rect width="6.82542" height="1.19846" transform="matrix(0.974061 0.226287 -0.235103 0.97197 15.3069 23.8232)" fill="#E1A113"/>
<rect width="6.69702" height="1.2214" transform="matrix(-0.0833921 0.996517 -0.996786 -0.0801145 14.1138 12.7876)" fill="#004F9F"/>
<ellipse cx="4.27549" cy="17.4784" rx="2.93174" ry="2.87316" fill="#E1A113"/>
<ellipse cx="13.8033" cy="10.2955" rx="2.93174" ry="2.87316" fill="#004F9F"/>
<ellipse cx="26.7518" cy="20.8303" rx="2.93174" ry="2.87316" fill="#E1A113"/>
<ellipse cx="23.2099" cy="13.8869" rx="4.15329" ry="4.07031" fill="#004F9F"/>
<ellipse cx="37.8679" cy="25.8584" rx="4.15329" ry="4.07031" fill="#E1A113"/>
<ellipse cx="13.0708" cy="23.2246" rx="4.15329" ry="4.07031" fill="#E1A113"/>
<ellipse cx="2.93174" cy="25.9781" rx="2.93174" ry="2.87316" fill="#E1A113"/>
<ellipse cx="6.96279" cy="10.2954" rx="1.95449" ry="1.91544" fill="#004F9F"/>
<ellipse cx="21.6215" cy="26.0978" rx="1.95449" ry="1.91544" fill="#E1A113"/>
<rect x="8.67285" y="9.6969" width="2.56527" height="1.19715" fill="#004F9F"/>
<rect width="3.82054" height="1.20067" transform="matrix(0.928333 0.371749 -0.384833 0.922986 16.5869 10.6547)" fill="#004F9F"/>
<rect width="6.81325" height="1.20067" transform="matrix(0.928333 0.371749 -0.384833 0.922986 29.2908 21.429)" fill="#E1A113"/>
<rect width="6.79093" height="1.20471" transform="matrix(0.837278 0.546777 -0.562277 0.826949 5.80786 17.7178)" fill="#E1A113"/>
<rect width="6.82336" height="1.19884" transform="matrix(0.966505 -0.256649 0.266484 0.963839 3.50635 25.34)" fill="#E1A113"/>
<rect width="6.7746" height="1.20764" transform="matrix(-0.763162 0.646207 -0.661316 -0.750108 27.1018 22.0953)" fill="#E1A113"/>
<path d="M20.2776 31.0096C11.6607 29.8969 7.71197 30.3205 1.09912 32.6856C2.56499 38.0096 5.05074 41.9981 7.32906 44.3894C11.177 48.4281 15.4153 50.2613 19.4225 51.3012C30.1298 53.2978 39.8492 50.2245 46.0479 41.9635C48.9653 38.3184 50.7316 33.6198 50.9997 27.8371C45.9303 27.4181 44.0801 29.156 42.9375 30.8898C42.005 32.3048 41.6334 34.5656 40.7997 36.3369C39.9407 38.1622 38.6174 39.4931 37.5015 40.5868C36.2189 42.0233 34.1565 42.949 32.5542 43.4599C28.1047 44.8787 23.9889 44.124 21.0105 41.4248C19.85 39.9283 20.3386 37.7235 22.7207 37.8932C27.2946 38.2191 29.7854 38.33 32.7985 37.1749C35.3027 36.2149 35.7913 32.6257 34.5087 31.3687C33.9053 30.7774 32.1877 30.0518 29.9279 30.83C28.2788 31.5136 23.2093 31.3881 20.2776 31.0096Z" fill="#004F9F"/>
<rect x="13.6814" y="54.5901" width="21.988" height="2.99287" rx="1.49644" fill="#004F9F"/>
<rect x="13.6814" y="59.0195" width="21.988" height="2.99287" rx="1.49644" fill="#004F9F"/>
<rect x="13.6814" y="63.5687" width="21.988" height="2.99287" rx="1.49644" fill="#004F9F"/>
<path d="M30.0505 67.9982C30.0505 68.8554 29.4649 69.6776 28.4226 70.2838C27.3802 70.8899 25.9665 71.2305 24.4924 71.2305C23.0183 71.2305 21.6046 70.8899 20.5623 70.2838C19.5199 69.6776 18.9343 68.8554 18.9343 67.9982L24.4924 67.9982H30.0505Z" fill="#004F9F"/>
</svg>
